# xmcd
# Copyright (C) 1995-1998 Ti Kan
#
# Track frame offsets:
#       150
#       17858
#       27329
#       42225
#       54426
#       68523
#       82894
#       92714
#       106101
#       117877
#       130373
#       144993
#
# Disc length: 2168 seconds
#
# Revision: 0
# Processed by: cddbd v1.5.2PL0 Copyright (c) Steve Scherf et al.
# Submitted via: CD-Transfer v1.0
#
DISCID=9308760c
DTITLE=Weihnachten 08 - 
DYEAR=08
DGENRE=
TTITLE0=Zillertaler Gipfelwind/Die Stille Zeit
TTITLE1=Zillertaler Gipfelwind/Mander Treibst´s Die Schaflan Z´samm
TTITLE2=Zillertaler Gipfelwind/Der Mettngong
TTITLE3=Zillertaler Gipfelwind/Is Warten Ischt Vorbei
TTITLE4=Zillertaler Gipfelwind/Der Schnnewind Waht Über Die Almen Her
TTITLE5=Zillertaler Gipfelwind/Is Jahr Macht Langsam Zua
TTITLE6=Zillertaler Gipfelwind/Die Heilige Nacht
TTITLE7=Zillertaler Gipfelwind/Es Weacht Scho Friah Dunkel
TTITLE8=Zillertaler Gipfelwind/Für´s  Jesukind
TTITLE9=Zillertaler Gipfelwind/Herbergslied
TTITLE10=Zillertaler Gipfelwind/Leis Erklingt Das Lied Stille Nacht
TTITLE11=Zillertaler Gipfelwind/Die Stille Zeit
EXTD=
EXTT0=
EXTT1=
EXTT2=
EXTT3=
EXTT4=
EXTT5=
EXTT6=
EXTT7=
EXTT8=
EXTT9=
EXTT10=
EXTT11=
PLAYORDER=
